<svg width="89" height="89" viewBox="0 0 89 89" fill="none" xmlns="http://www.w3.org/2000/svg">
<g filter="url(#filter0_dd_645_87)">
<path d="M60.4809 43.2273C60.0817 44.1113 59.6102 44.9552 59.074 45.7512L60.4809 43.2273ZM30.926 45.7512C30.3898 44.9552 29.9183 44.1113 29.5191 43.2273L30.926 45.7512Z" fill="#D9D9D9"/>
<path d="M30.926 45.7512L45 71L59.074 45.7512C56.0161 50.2905 50.8536 53.2727 45 53.2727C39.1465 53.2727 33.9839 50.2905 30.926 45.7512Z" fill="url(#paint0_radial_645_87)"/>
<path d="M28 36.1364C28 26.6722 35.6112 19 45 19C54.3888 19 62 26.6722 62 36.1364C62 38.6654 61.4565 41.0664 60.4809 43.2273L59.074 45.7512C56.0161 50.2905 50.8536 53.2727 45 53.2727C39.1465 53.2727 33.9839 50.2905 30.926 45.7512L29.5191 43.2273C28.5435 41.0664 28 38.6654 28 36.1364ZM45 43.8182C49.5325 43.8182 53.2069 40.1144 53.2069 35.5455C53.2069 30.9766 49.5325 27.2727 45 27.2727C40.4675 27.2727 36.7931 30.9766 36.7931 35.5455C36.7931 40.1144 40.4675 43.8182 45 43.8182Z" fill="url(#paint1_radial_645_87)"/>
</g>
<defs>

<radialGradient id="paint0_radial_645_87" cx="0" cy="0" r="1" gradientUnits="userSpaceOnUse" gradientTransform="translate(45 45) rotate(90) scale(26 17)">
<stop stop-color="#E0BC7A"/>
<stop offset="1" stop-color="#8C6538"/>
</radialGradient>
<radialGradient id="paint1_radial_645_87" cx="0" cy="0" r="1" gradientUnits="userSpaceOnUse" gradientTransform="translate(45 45) rotate(90) scale(26 17)">
<stop stop-color="#E0BC7A"/>
<stop offset="1" stop-color="#8C6538"/>
</radialGradient>
</defs>
</svg>
